<?xml version="1.0" encoding="UTF-8"?>
<svg version="1.1" xmlns="http://www.w3.org/2000/svg" width="299" height="300">
<path d="M0 0 C2.1258369 1.52541213 4.37683437 2.8172755 6.61987305 4.16235352 C17.55404506 12.24169905 27.54940707 21.19479719 35.61987305 32.16235352 C36.2025293 32.94094727 36.78518555 33.71954102 37.38549805 34.52172852 C40.92032354 39.39405555 44.05174051 44.45312336 47.05737305 49.66235352 C47.41186523 50.27433594 47.76635742 50.88631836 48.1315918 51.5168457 C50.61987305 55.91330295 50.61987305 55.91330295 50.61987305 58.16235352 C47.25812247 59.02233622 45.33004657 59.48475678 42.1159668 58.02563477 C39.18252199 55.83588019 38.05540452 53.89721191 36.36987305 50.66235352 C32.75604611 44.18238798 28.50159593 38.73032498 23.61987305 33.16235352 C23.19158203 32.66703125 22.76329102 32.17170898 22.32202148 31.66137695 C0.52839384 6.5516743 -29.33736765 -8.77961357 -62.5637207 -11.24389648 C-81.46350911 -12.4495175 -98.44946138 -10.98820135 -116.38012695 -4.83764648 C-117.47454102 -4.47928711 -118.56895508 -4.12092773 -119.6965332 -3.75170898 C-135.0563614 1.66940685 -148.55974528 10.04480535 -160.38012695 21.16235352 C-161.2721582 21.99766602 -162.16418945 22.83297852 -163.08325195 23.69360352 C-188.76524546 48.58780581 -201.72225024 80.67198928 -202.66552734 116.2265625 C-203.06478223 151.19193847 -189.06330032 183.38009222 -165.02075195 208.52172852 C-163.71364258 209.82883789 -163.71364258 209.82883789 -162.38012695 211.16235352 C-161.5705957 211.97188477 -160.76106445 212.78141602 -159.92700195 213.61547852 C-155.47531403 217.8374019 -150.81609383 221.27699936 -145.55981445 224.42797852 C-144.96289795 224.79036621 -144.36598145 225.15275391 -143.75097656 225.52612305 C-142.29626221 226.40856239 -140.83850838 227.28598792 -139.38012695 228.16235352 C-139.38234756 226.92940048 -139.38456818 225.69644745 -139.38685608 224.4261322 C-139.5704736 119.02041571 -139.5704736 119.02041571 -138.9744072 77.05061722 C-138.94257865 74.78391389 -138.91266639 72.51719146 -138.88308716 70.25045776 C-138.82844795 66.12980276 -138.76387978 62.00938336 -138.6965332 57.88891602 C-138.67981567 56.69336594 -138.66309814 55.49781586 -138.64587402 54.26603699 C-138.62593384 53.19879898 -138.60599365 52.13156097 -138.58544922 51.03198242 C-138.56990494 50.1076944 -138.55436066 49.18340637 -138.53834534 48.23110962 C-138.38012695 46.16235352 -138.38012695 46.16235352 -137.38012695 45.16235352 C-135.15966249 45.04154304 -132.93530395 44.99205048 -130.71166992 44.96948242 C-130.01385406 44.96130493 -129.31603821 44.95312744 -128.59707642 44.94470215 C-126.27216447 44.91976713 -123.94731472 44.90329579 -121.62231445 44.88891602 C-120.82554417 44.88359234 -120.02877388 44.87826866 -119.20785904 44.87278366 C-114.9760662 44.84599445 -110.74430319 44.8266536 -106.51245117 44.81225586 C-103.03236034 44.79901191 -99.55286923 44.77134812 -96.07299805 44.73022461 C-91.85718555 44.68040641 -87.64190976 44.65607284 -83.42581558 44.64902878 C-81.83048783 44.64238552 -80.2351687 44.62734853 -78.64001083 44.60313797 C-63.67437613 44.38928973 -50.84446855 47.30490931 -38.38012695 56.16235352 C-37.75879883 56.60063477 -37.1374707 57.03891602 -36.49731445 57.49047852 C-25.62884143 65.97081173 -18.79640029 79.29103483 -16.8605957 92.78344727 C-15.65354577 108.50728435 -17.961075 122.1079661 -26.94262695 135.49047852 C-27.41700195 136.04219727 -27.89137695 136.59391602 -28.38012695 137.16235352 C-29.04012695 137.16235352 -29.70012695 137.16235352 -30.38012695 137.16235352 C-30.62891602 137.74243164 -30.87770508 138.32250977 -31.1340332 138.92016602 C-35.80397788 147.32313858 -46.34434459 153.27215082 -55.25627136 156.06306458 C-63.71293984 158.10673366 -71.7497723 158.6321762 -80.4309082 158.67407227 C-81.65628296 158.69070923 -82.88165771 158.70734619 -84.14416504 158.7244873 C-88.66014984 158.78170834 -93.17641885 158.81439402 -97.69262695 158.84985352 C-107.81950195 158.95297852 -117.94637695 159.05610352 -128.38012695 159.16235352 C-128.71012695 186.88235352 -129.04012695 214.60235352 -129.38012695 243.16235352 C-134.18373259 242.20163239 -137.32550976 240.68797766 -141.38012695 238.16235352 C-142.05205078 237.74727539 -142.72397461 237.33219727 -143.41625977 236.90454102 C-153.45477388 230.60225221 -162.56796211 223.90486828 -170.97338867 215.54125977 C-172.27489695 214.26550156 -173.62465311 213.03947277 -174.9777832 211.81860352 C-195.58835237 192.74321145 -210.57743955 160.10905785 -212.38012695 132.16235352 C-212.51942884 127.75858589 -212.56595861 123.35877804 -212.56542969 118.95288086 C-212.56760791 116.93004021 -212.5858023 114.90775393 -212.60473633 112.88500977 C-212.64476482 85.63895271 -203.90550352 57.97069648 -187.38012695 36.16235352 C-186.89584229 35.51105469 -186.41155762 34.85975586 -185.91259766 34.1887207 C-174.79806546 19.50583028 -161.28892697 6.49631269 -145.38012695 -2.83764648 C-144.6432666 -3.27399414 -143.90640625 -3.7103418 -143.1472168 -4.15991211 C-132.33790678 -10.45376778 -121.45155944 -14.94800368 -109.40161133 -18.27514648 C-107.53600532 -18.79427163 -105.68375142 -19.36075788 -103.83325195 -19.93139648 C-70.43814511 -28.69572317 -27.67460532 -20.36550216 0 0 Z M-129.38012695 55.16235352 C-129.38012695 86.18235352 -129.38012695 117.20235352 -129.38012695 149.16235352 C-119.62450195 149.24485352 -109.86887695 149.32735352 -99.81762695 149.41235352 C-96.76955811 149.44876953 -93.72148926 149.48518555 -90.58105469 149.52270508 C-88.11695048 149.5344069 -85.65283843 149.54459517 -83.1887207 149.55297852 C-81.9483606 149.57344238 -80.70800049 149.59390625 -79.43005371 149.61499023 C-64.65350408 149.62076627 -50.41275036 146.10983942 -39.0715332 136.13110352 C-30.13814949 126.80931182 -24.96566831 114.7388826 -25.06762695 101.84985352 C-25.0732666 101.10147217 -25.07890625 100.35309082 -25.0847168 99.58203125 C-25.36213065 86.8937806 -30.67324225 76.37327249 -39.38012695 67.16235352 C-42.30168231 64.66625792 -42.30168231 64.66625792 -45.50512695 62.47485352 C-46.53895508 61.72848633 -47.5727832 60.98211914 -48.63793945 60.21313477 C-57.92419482 54.61692064 -68.39803908 54.74859509 -78.8918457 54.86938477 C-80.17820923 54.87240601 -81.46457275 54.87542725 -82.78991699 54.87854004 C-87.54923644 54.89411768 -92.30844061 54.93600068 -97.06762695 54.97485352 C-113.06231445 55.06766602 -113.06231445 55.06766602 -129.38012695 55.16235352 Z " fill="#1E1E1E" transform="translate(228.380126953125,29.837646484375)"/>
<path d="M0 0 C0.69932648 0.00121857 1.39865295 0.00243713 2.11917114 0.00369263 C11.73150326 0.02328698 21.33181784 0.17927885 30.9375 0.5625 C31.94876953 0.60165527 32.96003906 0.64081055 34.00195312 0.68115234 C40.87159509 0.99659509 40.87159509 0.99659509 42 2.125 C43.17585252 23.86459898 38.27237639 45.46067237 29 65.125 C28.57332031 66.08019531 28.14664063 67.03539062 27.70703125 68.01953125 C21.86875972 80.49740569 13.50006038 91.22068173 4 101.125 C3.11957031 102.08019531 2.23914063 103.03539062 1.33203125 104.01953125 C-13.84314699 120.16450271 -33.93172631 131.57904615 -55 138.125 C-56.15113281 138.49367188 -57.30226563 138.86234375 -58.48828125 139.2421875 C-83.362268 146.8233581 -110.32595024 146.04094712 -135.28515625 139.06640625 C-137.58390245 137.80445218 -138.13966034 136.56799657 -139 134.125 C-138.625 131.375 -138.625 131.375 -138 129.125 C-131.96335571 129.71682787 -126.23062828 130.94910191 -120.34375 132.40625 C-93.6610633 138.14178079 -65.43256498 133.61080245 -41 122.125 C-40.30406738 121.79983398 -39.60813477 121.47466797 -38.89111328 121.13964844 C-7.69766201 106.25823005 14.2117489 79.05278578 26.0546875 47.05737305 C29.34284585 37.67624809 30.79186611 27.9760557 32.078125 18.16015625 C32.16787598 17.47828247 32.25762695 16.79640869 32.35009766 16.09387207 C32.56791469 14.43773653 32.78412957 12.7813904 33 11.125 C32.03946465 11.13166183 32.03946465 11.13166183 31.05952454 11.13845825 C24.39232617 11.1827188 17.72516958 11.21287783 11.05786133 11.23486328 C8.56988835 11.24491832 6.08192718 11.25856416 3.59399414 11.27587891 C0.01706019 11.30014866 -3.55971745 11.31148819 -7.13671875 11.3203125 C-8.24834885 11.33063507 -9.35997894 11.34095764 -10.5052948 11.35159302 C-11.54599625 11.35174408 -12.58669769 11.35189514 -13.65893555 11.35205078 C-14.5716069 11.356492 -15.48427826 11.36093323 -16.42460632 11.36550903 C-19.26065471 11.10065816 -21.41838928 10.29986628 -24 9.125 C-24.04241723 6.79205225 -24.04092937 4.45797433 -24 2.125 C-19.5789034 -2.2960966 -5.78995214 -0.02175687 0 0 Z " fill="#1C1C1C" transform="translate(250,140.875)"/>
<path d="M0 0 C0.69899414 0.00088623 1.39798828 0.00177246 2.11816406 0.00268555 C15.09505681 0.0219347 28.04132653 0.42332068 41 1.125 C41 1.455 41 1.785 41 2.125 C20.21 2.455 -0.58 2.785 -22 3.125 C-21.67 4.775 -21.34 6.425 -21 8.125 C-15.72052609 8.27001294 -10.44098746 8.41229429 -5.16137695 8.55224609 C-3.37229516 8.60003191 -1.58323178 8.64851269 0.20581055 8.69775391 C2.80512927 8.76916777 5.40449083 8.83844958 8.00390625 8.90625 C8.85248199 8.92848633 9.70105774 8.95072266 10.5753479 8.97363281 C17.16653292 9.13362883 23.74734806 9.13372435 30.33959961 9.04492188 C33 9.125 33 9.125 34 10.125 C34.67645183 19.24409103 33.68109795 27.41143165 31 36.125 C29.91502525 32.87007576 30.07536298 31.36348815 30.55859375 28.01953125 C30.76645508 26.54516602 30.76645508 26.54516602 30.97851562 25.04101562 C31.12998047 24.01685547 31.28144531 22.99269531 31.4375 21.9375 C31.58509766 20.90173828 31.73269531 19.86597656 31.88476562 18.79882812 C32.25032267 16.23992879 32.62230318 13.68213092 33 11.125 C32.03946465 11.13166183 32.03946465 11.13166183 31.05952454 11.13845825 C24.39232617 11.1827188 17.72516958 11.21287783 11.05786133 11.23486328 C8.56988835 11.24491832 6.08192718 11.25856416 3.59399414 11.27587891 C0.01706019 11.30014866 -3.55971745 11.31148819 -7.13671875 11.3203125 C-8.24834885 11.33063507 -9.35997894 11.34095764 -10.5052948 11.35159302 C-11.54599625 11.35174408 -12.58669769 11.35189514 -13.65893555 11.35205078 C-14.5716069 11.356492 -15.48427826 11.36093323 -16.42460632 11.36550903 C-19.26065471 11.10065816 -21.41838928 10.29986628 -24 9.125 C-24.04241723 6.79205225 -24.04092937 4.45797433 -24 2.125 C-19.57850745 -2.29649255 -5.79038398 -0.02099929 0 0 Z " fill="#727272" transform="translate(250,140.875)"/>
<path d="M0 0 C0.69899414 0.00088623 1.39798828 0.00177246 2.11816406 0.00268555 C15.09505681 0.0219347 28.04132653 0.42332068 41 1.125 C41 1.455 41 1.785 41 2.125 C20.21 2.455 -0.58 2.785 -22 3.125 C-21.67 5.105 -21.34 7.085 -21 9.125 C-21.99 9.125 -22.98 9.125 -24 9.125 C-24.04241723 6.79205225 -24.04092937 4.45797433 -24 2.125 C-19.57850745 -2.29649255 -5.79038398 -0.02099929 0 0 Z " fill="#565656" transform="translate(250,140.875)"/>
<path d="M0 0 C0.66 0.33 1.32 0.66 2 1 C-2.49120542 6.43672236 -7.35507443 11.49189796 -12.3125 16.5 C-13.24666748 17.45350342 -13.24666748 17.45350342 -14.19970703 18.42626953 C-15.08505127 19.31354736 -15.08505127 19.31354736 -15.98828125 20.21875 C-16.51977783 20.75435547 -17.05127441 21.28996094 -17.59887695 21.84179688 C-19 23 -19 23 -21 23 C-21.33 24.32 -21.66 25.64 -22 27 C-22.66 27 -23.32 27 -24 27 C-22.5738115 22.49792736 -20.33807795 19.98742144 -16.9921875 16.69921875 C-16.50670441 16.2179805 -16.02122131 15.73674225 -15.52102661 15.24092102 C-13.97928936 13.71588414 -12.42742109 12.20165211 -10.875 10.6875 C-9.82353045 9.65108846 -8.7727415 8.61398595 -7.72265625 7.57617188 C-5.1562663 5.04273605 -2.5806871 2.51887992 0 0 Z " fill="#252525" transform="translate(67,38)"/>
</svg>
